<?xml version="1.0" encoding="iso-8859-1"?>
<!-- Generator: Adobe Illustrator 19.0.0, SVG Export Plug-In . SVG Version: 6.00 Build 0)  -->
<svg version="1.1" id="Layer_1" xmlns="http://www.w3.org/2000/svg" xmlns:xlink="http://www.w3.org/1999/xlink" x="0px" y="0px"
	 viewBox="0 0 512 512" style="enable-background:new 0 0 512 512;" xml:space="preserve">
<g>
	<g>
		<path d="M412.77,81.345c-22.575-18.958-48.1-22.958-69.287-23.413L359.938,14.9c1.588-4.157,0.511-8.863-2.73-11.914
			c-3.239-3.052-8.001-3.844-12.056-2.007l-89.148,40.398L166.857,0.979c-4.056-1.836-8.816-1.044-12.056,2.007
			c-3.241,3.051-4.318,7.757-2.73,11.914l16.298,42.627c-20.672,0.378-45.42,4.239-67.485,22.44
			c-56.399,46.542-88.746,115.131-88.746,188.179C12.138,402.607,121.536,512,256.008,512
			c134.462,0,243.854-109.393,243.854-243.854C499.862,195.922,468.118,127.836,412.77,81.345z M190.566,66.72
			c1.907-2.942,2.292-6.618,1.042-9.892l-9.493-24.826l69.356,31.428c2.879,1.304,6.185,1.304,9.062,0L329.89,32l-9.493,24.826
			c-1.25,3.275-0.865,6.95,1.042,9.892l32.24,49.741l-54.311-22.103c-4.768-1.941-10.244-0.306-13.17,3.927l-30.195,43.694
			l-30.195-43.694c-2.101-3.039-5.514-4.738-9.036-4.738c-1.385,0-2.787,0.263-4.134,0.811l-54.313,22.105L190.566,66.72z
			 M256.008,490.043c-122.363,0-221.913-99.543-221.913-221.897c0-66.471,29.437-128.887,80.762-171.241
			c11.214-9.25,23.973-14.514,40.677-16.506l-34.626,53.423c-2.607,4.024-2.303,9.273,0.754,12.969
			c3.058,3.695,8.158,4.975,12.597,3.171l78.495-31.947l34.218,49.514c2.049,2.967,5.426,4.737,9.032,4.737s6.982-1.77,9.032-4.737
			l34.218-49.514l78.495,31.947c4.435,1.808,9.541,0.523,12.597-3.171c3.056-3.695,3.361-8.945,0.754-12.969l-34.316-52.943
			c17.273,2.125,30.371,7.626,41.865,17.28c50.369,42.307,79.257,104.265,79.257,169.986
			C477.905,390.5,378.362,490.043,256.008,490.043z"/>
	</g>
</g>
<g>
</g>
<g>
</g>
<g>
</g>
<g>
</g>
<g>
</g>
<g>
</g>
<g>
</g>
<g>
</g>
<g>
</g>
<g>
</g>
<g>
</g>
<g>
</g>
<g>
</g>
<g>
</g>
<g>
</g>
</svg>
